<svg width="160" height="18" viewBox="0 0 160 18" fill="none" xmlns="http://www.w3.org/2000/svg">
<path d="M19.0472 0.707225L21.1739 14.8061C21.283 15.5665 21.4154 16.1217 21.5712 16.4715C21.727 16.8061 21.9763 17.019 22.3191 17.1103C22.8176 17.2624 23.3006 17.3384 23.7681 17.3384C24.0173 17.3384 24.142 17.3916 24.142 17.4981C24.142 17.6654 23.9394 17.7491 23.5343 17.7491C21.6179 17.7491 20.0365 17.7034 18.7901 17.6122C18.3382 17.5665 18.1123 17.4829 18.1123 17.3612C18.1123 17.27 18.198 17.1863 18.3694 17.1103C18.5408 17.0494 18.5797 16.7224 18.4863 16.1293L17.0606 5.95437L11.8957 16.4487C11.6153 17.0114 11.4283 17.3688 11.3348 17.5209C11.2413 17.6578 11.1401 17.7262 11.031 17.7262C10.9064 17.7262 10.6337 17.346 10.213 16.5856C8.67055 13.6958 7.77467 11.9696 7.52538 11.4068C7.46306 11.27 7.29167 10.9049 7.01123 10.3118C6.73078 9.71863 6.37243 8.98099 5.93617 8.09886C5.5155 7.21673 5.21168 6.57795 5.02471 6.18251L3.78606 15.4221C3.73932 15.8327 3.71595 16.1901 3.71595 16.4943C3.71595 16.8745 3.94966 17.1179 4.41707 17.2243C4.75984 17.3004 5.08703 17.3384 5.39864 17.3384C5.63235 17.3384 5.7492 17.3916 5.7492 17.4981C5.7492 17.6654 5.56224 17.7491 5.18831 17.7491C4.81437 17.7491 4.33138 17.7338 3.73932 17.7034C3.16284 17.6882 2.82786 17.6806 2.73438 17.6806C2.60973 17.6806 2.25917 17.6882 1.68269 17.7034C1.1218 17.7338 0.701123 17.7491 0.420673 17.7491C0.140225 17.7491 0 17.6654 0 17.4981C0 17.3916 0.124644 17.3384 0.373932 17.3384C0.60764 17.3384 0.841347 17.3156 1.07505 17.27C1.54247 17.1635 1.86187 16.5627 2.03326 15.4677L4.34696 0.593156C4.42486 0.197719 4.5573 0 4.74426 0C4.93123 0 5.14157 0.235742 5.37527 0.707225L11.7555 13.5741L18.1123 0.547528C18.2993 0.182509 18.4707 0 18.6265 0C18.8446 0 18.9848 0.235742 19.0472 0.707225Z" fill="black"/>
<path d="M19.0472 0.707225L21.1739 14.8061C21.283 15.5665 21.4154 16.1217 21.5712 16.4715C21.727 16.8061 21.9763 17.019 22.3191 17.1103C22.8176 17.2624 23.3006 17.3384 23.7681 17.3384C24.0173 17.3384 24.142 17.3916 24.142 17.4981C24.142 17.6654 23.9394 17.7491 23.5343 17.7491C21.6179 17.7491 20.0365 17.7034 18.7901 17.6122C18.3382 17.5665 18.1123 17.4829 18.1123 17.3612C18.1123 17.27 18.198 17.1863 18.3694 17.1103C18.5408 17.0494 18.5797 16.7224 18.4863 16.1293L17.0606 5.95437L11.8957 16.4487C11.6153 17.0114 11.4283 17.3688 11.3348 17.5209C11.2413 17.6578 11.1401 17.7262 11.031 17.7262C10.9064 17.7262 10.6337 17.346 10.213 16.5856C8.67055 13.6958 7.77467 11.9696 7.52538 11.4068C7.46306 11.27 7.29167 10.9049 7.01123 10.3118C6.73078 9.71863 6.37243 8.98099 5.93617 8.09886C5.5155 7.21673 5.21168 6.57795 5.02471 6.18251L3.78606 15.4221C3.73932 15.8327 3.71595 16.1901 3.71595 16.4943C3.71595 16.8745 3.94966 17.1179 4.41707 17.2243C4.75984 17.3004 5.08703 17.3384 5.39864 17.3384C5.63235 17.3384 5.7492 17.3916 5.7492 17.4981C5.7492 17.6654 5.56224 17.7491 5.18831 17.7491C4.81437 17.7491 4.33138 17.7338 3.73932 17.7034C3.16284 17.6882 2.82786 17.6806 2.73438 17.6806C2.60973 17.6806 2.25917 17.6882 1.68269 17.7034C1.1218 17.7338 0.701123 17.7491 0.420673 17.7491C0.140225 17.7491 0 17.6654 0 17.4981C0 17.3916 0.124644 17.3384 0.373932 17.3384C0.60764 17.3384 0.841347 17.3156 1.07505 17.27C1.54247 17.1635 1.86187 16.5627 2.03326 15.4677L4.34696 0.593156C4.42486 0.197719 4.5573 0 4.74426 0C4.93123 0 5.14157 0.235742 5.37527 0.707225L11.7555 13.5741L18.1123 0.547528C18.2993 0.182509 18.4707 0 18.6265 0C18.8446 0 18.9848 0.235742 19.0472 0.707225Z" fill="url(#paint0_linear_78_1428)"/>
<path d="M33.5597 12.9354H28.9323C28.8544 12.9354 28.792 12.9886 28.7453 13.0951L27.717 15.5817C27.5144 16.0989 27.4132 16.4943 27.4132 16.7681C27.4132 17.1635 27.8027 17.3612 28.5817 17.3612C28.8154 17.3612 28.9323 17.4221 28.9323 17.5437C28.9323 17.6806 28.8076 17.7491 28.5583 17.7491C28.309 17.7491 27.9273 17.7338 27.4132 17.7034C26.899 17.6882 26.5173 17.6806 26.268 17.6806L25.3565 17.7262C24.7489 17.7414 24.2269 17.7491 23.7907 17.7491C23.5414 17.7491 23.4168 17.6806 23.4168 17.5437C23.4168 17.4068 23.5102 17.3384 23.6972 17.3384C24.4295 17.2776 24.9359 17.1407 25.2163 16.9278C25.4968 16.7148 25.7694 16.2738 26.0343 15.6046L30.9889 4.17491C31.3784 3.1711 31.6822 2.6692 31.9003 2.6692C32.0406 2.6692 32.2197 2.90494 32.4379 3.37643C32.7806 4.31939 34.5023 8.25856 37.6028 15.1939C37.9456 15.9696 38.2572 16.5019 38.5376 16.7909C38.8181 17.0646 39.1141 17.2319 39.4257 17.2928C39.5659 17.3232 39.823 17.3384 40.197 17.3384C40.4307 17.3384 40.5475 17.4068 40.5475 17.5437C40.5475 17.6806 40.4151 17.7491 40.1502 17.7491C37.3769 17.7491 35.7409 17.7338 35.2424 17.7034C35.0087 17.673 34.8918 17.6122 34.8918 17.5209C34.8918 17.4601 34.9619 17.3992 35.1021 17.3384C35.3514 17.2624 35.4293 17.1255 35.3358 16.9278L33.7466 13.0722C33.7155 12.981 33.6532 12.9354 33.5597 12.9354ZM29.3997 11.7947H33.1156C33.2091 11.7947 33.2403 11.7567 33.2091 11.6806L31.3862 7.02662C31.3083 6.8289 31.2304 6.8289 31.1525 7.02662L29.3062 11.6806C29.275 11.7567 29.3062 11.7947 29.3997 11.7947Z" fill="black"/>
<path d="M33.5597 12.9354H28.9323C28.8544 12.9354 28.792 12.9886 28.7453 13.0951L27.717 15.5817C27.5144 16.0989 27.4132 16.4943 27.4132 16.7681C27.4132 17.1635 27.8027 17.3612 28.5817 17.3612C28.8154 17.3612 28.9323 17.4221 28.9323 17.5437C28.9323 17.6806 28.8076 17.7491 28.5583 17.7491C28.309 17.7491 27.9273 17.7338 27.4132 17.7034C26.899 17.6882 26.5173 17.6806 26.268 17.6806L25.3565 17.7262C24.7489 17.7414 24.2269 17.7491 23.7907 17.7491C23.5414 17.7491 23.4168 17.6806 23.4168 17.5437C23.4168 17.4068 23.5102 17.3384 23.6972 17.3384C24.4295 17.2776 24.9359 17.1407 25.2163 16.9278C25.4968 16.7148 25.7694 16.2738 26.0343 15.6046L30.9889 4.17491C31.3784 3.1711 31.6822 2.6692 31.9003 2.6692C32.0406 2.6692 32.2197 2.90494 32.4379 3.37643C32.7806 4.31939 34.5023 8.25856 37.6028 15.1939C37.9456 15.9696 38.2572 16.5019 38.5376 16.7909C38.8181 17.0646 39.1141 17.2319 39.4257 17.2928C39.5659 17.3232 39.823 17.3384 40.197 17.3384C40.4307 17.3384 40.5475 17.4068 40.5475 17.5437C40.5475 17.6806 40.4151 17.7491 40.1502 17.7491C37.3769 17.7491 35.7409 17.7338 35.2424 17.7034C35.0087 17.673 34.8918 17.6122 34.8918 17.5209C34.8918 17.4601 34.9619 17.3992 35.1021 17.3384C35.3514 17.2624 35.4293 17.1255 35.3358 16.9278L33.7466 13.0722C33.7155 12.981 33.6532 12.9354 33.5597 12.9354ZM29.3997 11.7947H33.1156C33.2091 11.7947 33.2403 11.7567 33.2091 11.6806L31.3862 7.02662C31.3083 6.8289 31.2304 6.8289 31.1525 7.02662L29.3062 11.6806C29.275 11.7567 29.3062 11.7947 29.3997 11.7947Z" fill="url(#paint1_linear_78_1428)"/>
<path d="M46.7554 16.8365L41.5437 5.06464C41.31 4.54753 41.0841 4.19772 40.8659 4.01521C40.6634 3.81749 40.3674 3.673 39.9779 3.58175C39.7286 3.52091 39.4949 3.49049 39.2767 3.49049C39.0898 3.49049 38.9963 3.42205 38.9963 3.28517C38.9963 3.14829 39.1599 3.07985 39.4871 3.07985C39.8766 3.07985 40.4219 3.09506 41.123 3.12548C41.8242 3.14068 42.2838 3.14829 42.5019 3.14829C42.6421 3.14829 43.0238 3.14068 43.6471 3.12548C44.2859 3.09506 44.8156 3.07985 45.2363 3.07985C45.5323 3.07985 45.6803 3.14829 45.6803 3.28517C45.6803 3.42205 45.5713 3.49049 45.3531 3.49049C44.9636 3.52091 44.6987 3.57415 44.5585 3.65019C44.4027 3.72624 44.3248 3.85551 44.3248 4.03802C44.3248 4.31179 44.4884 4.81369 44.8156 5.54373C45.2363 6.60837 45.8751 8.20532 46.732 10.3346C47.6045 12.4487 48.1265 13.711 48.2978 14.1217C50.7596 8.37262 52.0995 5.22433 52.3176 4.67681C52.4423 4.37262 52.5046 4.14449 52.5046 3.9924C52.5046 3.77947 52.4033 3.65019 52.2008 3.60456C52.0294 3.55894 51.7489 3.52091 51.3594 3.49049C51.1257 3.49049 51.0089 3.42205 51.0089 3.28517C51.0089 3.14829 51.1725 3.07985 51.4996 3.07985C51.9359 3.07985 52.4267 3.09506 52.972 3.12548C53.5173 3.14068 53.7978 3.14829 53.8133 3.14829C53.9068 3.14829 54.2029 3.14068 54.7014 3.12548C55.2156 3.09506 55.5817 3.07985 55.7999 3.07985C56.1115 3.07985 56.2673 3.14829 56.2673 3.28517C56.2673 3.42205 56.1348 3.49049 55.87 3.49049C55.4181 3.53612 55.1065 3.61217 54.9351 3.71863C54.5924 3.91635 54.2029 4.5019 53.7666 5.47529C53.4862 6.08365 53.0811 6.92015 52.5513 7.98479C52.0372 9.04943 51.6009 9.96958 51.2426 10.7452C49.7468 13.9544 48.8354 15.9011 48.5082 16.5856C48.2277 17.1939 48.033 17.5817 47.9239 17.7491C47.8149 17.9163 47.6902 18 47.55 18C47.4098 18 47.2929 17.924 47.1994 17.7719C47.1215 17.635 46.9735 17.3232 46.7554 16.8365Z" fill="black"/>
<path d="M46.7554 16.8365L41.5437 5.06464C41.31 4.54753 41.0841 4.19772 40.8659 4.01521C40.6634 3.81749 40.3674 3.673 39.9779 3.58175C39.7286 3.52091 39.4949 3.49049 39.2767 3.49049C39.0898 3.49049 38.9963 3.42205 38.9963 3.28517C38.9963 3.14829 39.1599 3.07985 39.4871 3.07985C39.8766 3.07985 40.4219 3.09506 41.123 3.12548C41.8242 3.14068 42.2838 3.14829 42.5019 3.14829C42.6421 3.14829 43.0238 3.14068 43.6471 3.12548C44.2859 3.09506 44.8156 3.07985 45.2363 3.07985C45.5323 3.07985 45.6803 3.14829 45.6803 3.28517C45.6803 3.42205 45.5713 3.49049 45.3531 3.49049C44.9636 3.52091 44.6987 3.57415 44.5585 3.65019C44.4027 3.72624 44.3248 3.85551 44.3248 4.03802C44.3248 4.31179 44.4884 4.81369 44.8156 5.54373C45.2363 6.60837 45.8751 8.20532 46.732 10.3346C47.6045 12.4487 48.1265 13.711 48.2978 14.1217C50.7596 8.37262 52.0995 5.22433 52.3176 4.67681C52.4423 4.37262 52.5046 4.14449 52.5046 3.9924C52.5046 3.77947 52.4033 3.65019 52.2008 3.60456C52.0294 3.55894 51.7489 3.52091 51.3594 3.49049C51.1257 3.49049 51.0089 3.42205 51.0089 3.28517C51.0089 3.14829 51.1725 3.07985 51.4996 3.07985C51.9359 3.07985 52.4267 3.09506 52.972 3.12548C53.5173 3.14068 53.7978 3.14829 53.8133 3.14829C53.9068 3.14829 54.2029 3.14068 54.7014 3.12548C55.2156 3.09506 55.5817 3.07985 55.7999 3.07985C56.1115 3.07985 56.2673 3.14829 56.2673 3.28517C56.2673 3.42205 56.1348 3.49049 55.87 3.49049C55.4181 3.53612 55.1065 3.61217 54.9351 3.71863C54.5924 3.91635 54.2029 4.5019 53.7666 5.47529C53.4862 6.08365 53.0811 6.92015 52.5513 7.98479C52.0372 9.04943 51.6009 9.96958 51.2426 10.7452C49.7468 13.9544 48.8354 15.9011 48.5082 16.5856C48.2277 17.1939 48.033 17.5817 47.9239 17.7491C47.8149 17.9163 47.6902 18 47.55 18C47.4098 18 47.2929 17.924 47.1994 17.7719C47.1215 17.635 46.9735 17.3232 46.7554 16.8365Z" fill="url(#paint2_linear_78_1428)"/>
<path d="M59.1015 12.1141V8.69202C59.1015 6.42586 59.0859 5.08745 59.0548 4.67681C59.0236 4.327 58.9457 4.07605 58.8211 3.92395C58.712 3.75665 58.5017 3.64259 58.1901 3.58175C58.0343 3.55133 57.7694 3.52091 57.3955 3.49049C57.1618 3.49049 57.0449 3.42205 57.0449 3.28517C57.0449 3.14829 57.1929 3.07985 57.4889 3.07985C57.894 3.07985 58.4549 3.09506 59.1716 3.12548C59.8883 3.14068 60.2856 3.14829 60.3635 3.14829C60.5661 3.14829 61.0569 3.14068 61.8359 3.12548C62.6149 3.09506 63.1213 3.07985 63.355 3.07985C65.0689 3.07985 66.3465 3.34601 67.1878 3.87833C67.5773 4.12167 67.9279 4.48669 68.2395 4.97338C68.5511 5.44487 68.7069 5.98479 68.7069 6.59316C68.7069 8.09886 67.7954 9.51331 65.9725 10.8365C68.2317 13.5741 69.6963 15.2776 70.3662 15.9468C70.5065 16.0837 70.6389 16.2129 70.7635 16.3346C70.9038 16.4563 71.0284 16.5551 71.1375 16.6312C71.2465 16.7072 71.3634 16.7833 71.488 16.8593C71.6127 16.9354 71.7062 16.9962 71.7685 17.0418C71.8464 17.0722 71.9399 17.1103 72.0489 17.1559C72.158 17.1863 72.2281 17.2091 72.2593 17.2243C72.306 17.2243 72.3839 17.2395 72.493 17.27L72.6332 17.2928C72.6955 17.2928 72.7812 17.3004 72.8903 17.3156C73.0149 17.3156 73.1084 17.3232 73.1707 17.3384C73.3577 17.3384 73.4512 17.3992 73.4512 17.5209C73.4512 17.673 73.3187 17.7491 73.0539 17.7491H71.0907C69.9845 17.7491 69.1432 17.6046 68.5667 17.3156C67.9123 16.9658 67.0242 16.0456 65.9024 14.5551C64.656 12.8669 63.986 11.9696 63.8925 11.8631C63.8302 11.7871 63.7211 11.749 63.5653 11.749L61.906 11.7034C61.797 11.7034 61.7424 11.7567 61.7424 11.8631V12.2738C61.7424 14.3422 61.7736 15.6426 61.8359 16.1749C61.8826 16.8289 62.1553 17.1863 62.6539 17.2471C62.7006 17.2624 63.0278 17.2928 63.6355 17.3384C63.8068 17.3384 63.8925 17.3992 63.8925 17.5209C63.8925 17.673 63.7601 17.7491 63.4952 17.7491C63.0122 17.7491 62.3656 17.7338 61.5555 17.7034C60.7453 17.6882 60.3324 17.6806 60.3168 17.6806C60.2389 17.6806 59.865 17.6882 59.195 17.7034C58.525 17.7338 58.0343 17.7491 57.7226 17.7491C57.4578 17.7491 57.3253 17.6806 57.3253 17.5437C57.3253 17.4068 57.4344 17.3384 57.6525 17.3384C58.1044 17.308 58.3537 17.2852 58.4004 17.27C58.7432 17.1939 58.9379 16.8289 58.9847 16.1749C59.0626 15.6426 59.1015 14.289 59.1015 12.1141ZM61.7424 4.44867V10.1749C61.7424 10.3422 61.8047 10.4487 61.9294 10.4943C62.3345 10.6464 62.8564 10.7224 63.4952 10.7224C64.134 10.7224 64.6092 10.6084 64.9208 10.3802C65.6843 9.84791 66.066 8.91255 66.066 7.57414C66.066 6.92015 65.9569 6.35741 65.7388 5.88593C65.5363 5.39924 65.2636 5.03422 64.9208 4.79088C64.5937 4.54753 64.2665 4.37262 63.9393 4.26616C63.6121 4.14449 63.2849 4.08365 62.9577 4.08365C62.428 4.08365 62.0774 4.11407 61.906 4.17491C61.797 4.22053 61.7424 4.31179 61.7424 4.44867Z" fill="black"/>
<path d="M59.1015 12.1141V8.69202C59.1015 6.42586 59.0859 5.08745 59.0548 4.67681C59.0236 4.327 58.9457 4.07605 58.8211 3.92395C58.712 3.75665 58.5017 3.64259 58.1901 3.58175C58.0343 3.55133 57.7694 3.52091 57.3955 3.49049C57.1618 3.49049 57.0449 3.42205 57.0449 3.28517C57.0449 3.14829 57.1929 3.07985 57.4889 3.07985C57.894 3.07985 58.4549 3.09506 59.1716 3.12548C59.8883 3.14068 60.2856 3.14829 60.3635 3.14829C60.5661 3.14829 61.0569 3.14068 61.8359 3.12548C62.6149 3.09506 63.1213 3.07985 63.355 3.07985C65.0689 3.07985 66.3465 3.34601 67.1878 3.87833C67.5773 4.12167 67.9279 4.48669 68.2395 4.97338C68.5511 5.44487 68.7069 5.98479 68.7069 6.59316C68.7069 8.09886 67.7954 9.51331 65.9725 10.8365C68.2317 13.5741 69.6963 15.2776 70.3662 15.9468C70.5065 16.0837 70.6389 16.2129 70.7635 16.3346C70.9038 16.4563 71.0284 16.5551 71.1375 16.6312C71.2465 16.7072 71.3634 16.7833 71.488 16.8593C71.6127 16.9354 71.7062 16.9962 71.7685 17.0418C71.8464 17.0722 71.9399 17.1103 72.0489 17.1559C72.158 17.1863 72.2281 17.2091 72.2593 17.2243C72.306 17.2243 72.3839 17.2395 72.493 17.27L72.6332 17.2928C72.6955 17.2928 72.7812 17.3004 72.8903 17.3156C73.0149 17.3156 73.1084 17.3232 73.1707 17.3384C73.3577 17.3384 73.4512 17.3992 73.4512 17.5209C73.4512 17.673 73.3187 17.7491 73.0539 17.7491H71.0907C69.9845 17.7491 69.1432 17.6046 68.5667 17.3156C67.9123 16.9658 67.0242 16.0456 65.9024 14.5551C64.656 12.8669 63.986 11.9696 63.8925 11.8631C63.8302 11.7871 63.7211 11.749 63.5653 11.749L61.906 11.7034C61.797 11.7034 61.7424 11.7567 61.7424 11.8631V12.2738C61.7424 14.3422 61.7736 15.6426 61.8359 16.1749C61.8826 16.8289 62.1553 17.1863 62.6539 17.2471C62.7006 17.2624 63.0278 17.2928 63.6355 17.3384C63.8068 17.3384 63.8925 17.3992 63.8925 17.5209C63.8925 17.673 63.7601 17.7491 63.4952 17.7491C63.0122 17.7491 62.3656 17.7338 61.5555 17.7034C60.7453 17.6882 60.3324 17.6806 60.3168 17.6806C60.2389 17.6806 59.865 17.6882 59.195 17.7034C58.525 17.7338 58.0343 17.7491 57.7226 17.7491C57.4578 17.7491 57.3253 17.6806 57.3253 17.5437C57.3253 17.4068 57.4344 17.3384 57.6525 17.3384C58.1044 17.308 58.3537 17.2852 58.4004 17.27C58.7432 17.1939 58.9379 16.8289 58.9847 16.1749C59.0626 15.6426 59.1015 14.289 59.1015 12.1141ZM61.7424 4.44867V10.1749C61.7424 10.3422 61.8047 10.4487 61.9294 10.4943C62.3345 10.6464 62.8564 10.7224 63.4952 10.7224C64.134 10.7224 64.6092 10.6084 64.9208 10.3802C65.6843 9.84791 66.066 8.91255 66.066 7.57414C66.066 6.92015 65.9569 6.35741 65.7388 5.88593C65.5363 5.39924 65.2636 5.03422 64.9208 4.79088C64.5937 4.54753 64.2665 4.37262 63.9393 4.26616C63.6121 4.14449 63.2849 4.08365 62.9577 4.08365C62.428 4.08365 62.0774 4.11407 61.906 4.17491C61.797 4.22053 61.7424 4.31179 61.7424 4.44867Z" fill="url(#paint3_linear_78_1428)"/>
<path d="M73.7026 9.71863H79.1012C79.5998 9.71863 79.8491 9.79468 79.8491 9.94677C79.8491 10.038 79.7946 10.1065 79.6855 10.1521C79.592 10.1825 79.3583 10.2433 78.9844 10.3346C76.6161 10.8669 74.9568 11.2852 74.0064 11.5894C73.4611 11.7871 73.1183 11.8859 72.9781 11.8859C72.8379 11.8859 72.7989 11.7643 72.8612 11.5209L73.1651 10.0152C73.1962 9.87833 73.243 9.79468 73.3053 9.76426C73.3676 9.73384 73.5 9.71863 73.7026 9.71863Z" fill="black"/>
<path d="M73.7026 9.71863H79.1012C79.5998 9.71863 79.8491 9.79468 79.8491 9.94677C79.8491 10.038 79.7946 10.1065 79.6855 10.1521C79.592 10.1825 79.3583 10.2433 78.9844 10.3346C76.6161 10.8669 74.9568 11.2852 74.0064 11.5894C73.4611 11.7871 73.1183 11.8859 72.9781 11.8859C72.8379 11.8859 72.7989 11.7643 72.8612 11.5209L73.1651 10.0152C73.1962 9.87833 73.243 9.79468 73.3053 9.76426C73.3676 9.73384 73.5 9.71863 73.7026 9.71863Z" fill="url(#paint4_linear_78_1428)"/>
<path d="M90.8823 1.77947V11.1331C90.8823 13.7338 90.9212 15.3612 90.9991 16.0152C91.077 16.7757 91.3809 17.1863 91.9106 17.2471C92.3468 17.308 92.7441 17.3384 93.1025 17.3384C93.3518 17.3384 93.4764 17.3992 93.4764 17.5209C93.4764 17.673 93.3284 17.7491 93.0324 17.7491C92.4403 17.7491 91.7158 17.7338 90.8589 17.7034C90.002 17.6882 89.5034 17.6806 89.3632 17.6806C89.223 17.6806 88.7789 17.6882 88.031 17.7034C87.2988 17.7338 86.7612 17.7491 86.4185 17.7491C86.1069 17.7491 85.951 17.673 85.951 17.5209C85.951 17.3992 86.0757 17.3384 86.325 17.3384C86.6054 17.3384 86.8859 17.308 87.1663 17.2471C87.5403 17.1711 87.7662 16.7529 87.8441 15.9924C87.922 15.3536 87.9609 13.7338 87.9609 11.1331V1.77947C87.9454 1.77947 87.4701 1.79468 86.5353 1.82509C85.6161 1.8403 84.9305 1.85551 84.4787 1.87072C83.7776 1.90114 83.2634 1.96198 82.9362 2.05323C82.6246 2.12928 82.3831 2.28897 82.2117 2.53232C82.0092 2.8365 81.8767 3.10266 81.8144 3.3308C81.7677 3.51331 81.682 3.60456 81.5574 3.60456C81.4171 3.60456 81.347 3.48289 81.347 3.23954C81.347 2.76806 81.5106 1.89354 81.8378 0.61597C81.9001 0.326997 81.9936 0.18251 82.1182 0.18251C82.1494 0.18251 82.2663 0.228137 82.4688 0.319392C82.6869 0.395437 82.9051 0.441064 83.1232 0.456273C83.871 0.532319 84.6501 0.570342 85.4603 0.570342H94.7151C95.1981 0.570342 95.7356 0.532319 96.3277 0.456273C96.7172 0.380228 96.9275 0.342205 96.9587 0.342205C97.0833 0.342205 97.1456 0.501901 97.1456 0.821293C97.1456 0.973384 97.1301 1.39924 97.0989 2.09886C97.0833 2.79848 97.0755 3.25475 97.0755 3.46768C97.0444 3.71103 96.9743 3.8327 96.8652 3.8327C96.7094 3.8327 96.6237 3.68061 96.6081 3.37643C96.6081 3.36122 96.6003 3.32319 96.5847 3.26236C96.5847 3.20152 96.5847 3.15589 96.5847 3.12548C96.5224 2.31939 95.6032 1.89354 93.827 1.84791C93.2038 1.81749 92.2222 1.79468 90.8823 1.77947Z" fill="black"/>
<path d="M90.8823 1.77947V11.1331C90.8823 13.7338 90.9212 15.3612 90.9991 16.0152C91.077 16.7757 91.3809 17.1863 91.9106 17.2471C92.3468 17.308 92.7441 17.3384 93.1025 17.3384C93.3518 17.3384 93.4764 17.3992 93.4764 17.5209C93.4764 17.673 93.3284 17.7491 93.0324 17.7491C92.4403 17.7491 91.7158 17.7338 90.8589 17.7034C90.002 17.6882 89.5034 17.6806 89.3632 17.6806C89.223 17.6806 88.7789 17.6882 88.031 17.7034C87.2988 17.7338 86.7612 17.7491 86.4185 17.7491C86.1069 17.7491 85.951 17.673 85.951 17.5209C85.951 17.3992 86.0757 17.3384 86.325 17.3384C86.6054 17.3384 86.8859 17.308 87.1663 17.2471C87.5403 17.1711 87.7662 16.7529 87.8441 15.9924C87.922 15.3536 87.9609 13.7338 87.9609 11.1331V1.77947C87.9454 1.77947 87.4701 1.79468 86.5353 1.82509C85.6161 1.8403 84.9305 1.85551 84.4787 1.87072C83.7776 1.90114 83.2634 1.96198 82.9362 2.05323C82.6246 2.12928 82.3831 2.28897 82.2117 2.53232C82.0092 2.8365 81.8767 3.10266 81.8144 3.3308C81.7677 3.51331 81.682 3.60456 81.5574 3.60456C81.4171 3.60456 81.347 3.48289 81.347 3.23954C81.347 2.76806 81.5106 1.89354 81.8378 0.61597C81.9001 0.326997 81.9936 0.18251 82.1182 0.18251C82.1494 0.18251 82.2663 0.228137 82.4688 0.319392C82.6869 0.395437 82.9051 0.441064 83.1232 0.456273C83.871 0.532319 84.6501 0.570342 85.4603 0.570342H94.7151C95.1981 0.570342 95.7356 0.532319 96.3277 0.456273C96.7172 0.380228 96.9275 0.342205 96.9587 0.342205C97.0833 0.342205 97.1456 0.501901 97.1456 0.821293C97.1456 0.973384 97.1301 1.39924 97.0989 2.09886C97.0833 2.79848 97.0755 3.25475 97.0755 3.46768C97.0444 3.71103 96.9743 3.8327 96.8652 3.8327C96.7094 3.8327 96.6237 3.68061 96.6081 3.37643C96.6081 3.36122 96.6003 3.32319 96.5847 3.26236C96.5847 3.20152 96.5847 3.15589 96.5847 3.12548C96.5224 2.31939 95.6032 1.89354 93.827 1.84791C93.2038 1.81749 92.2222 1.79468 90.8823 1.77947Z" fill="url(#paint5_linear_78_1428)"/>
<path d="M101.425 12.1141V8.69202C101.425 6.42586 101.41 5.08745 101.379 4.67681C101.348 4.327 101.27 4.07605 101.145 3.92395C101.036 3.75665 100.826 3.64259 100.514 3.58175C100.358 3.55133 100.093 3.52091 99.7193 3.49049C99.4856 3.49049 99.3688 3.42205 99.3688 3.28517C99.3688 3.14829 99.5168 3.07985 99.8128 3.07985C100.218 3.07985 100.779 3.09506 101.496 3.12548C102.212 3.14068 102.61 3.14829 102.687 3.14829C102.89 3.14829 103.381 3.14068 104.16 3.12548C104.939 3.09506 105.445 3.07985 105.679 3.07985C107.393 3.07985 108.67 3.34601 109.512 3.87833C109.901 4.12167 110.252 4.48669 110.563 4.97338C110.875 5.44487 111.031 5.98479 111.031 6.59316C111.031 8.09886 110.119 9.51331 108.296 10.8365C110.556 13.5741 112.02 15.2776 112.69 15.9468C112.83 16.0837 112.963 16.2129 113.087 16.3346C113.228 16.4563 113.352 16.5551 113.461 16.6312C113.57 16.7072 113.687 16.7833 113.812 16.8593C113.937 16.9354 114.03 16.9962 114.092 17.0418C114.17 17.0722 114.264 17.1103 114.373 17.1559C114.482 17.1863 114.552 17.2091 114.583 17.2243C114.63 17.2243 114.708 17.2395 114.817 17.27L114.957 17.2928C115.019 17.2928 115.105 17.3004 115.214 17.3156C115.339 17.3156 115.432 17.3232 115.495 17.3384C115.682 17.3384 115.775 17.3992 115.775 17.5209C115.775 17.673 115.643 17.7491 115.378 17.7491H113.415C112.308 17.7491 111.467 17.6046 110.891 17.3156C110.236 16.9658 109.348 16.0456 108.226 14.5551C106.98 12.8669 106.31 11.9696 106.216 11.8631C106.154 11.7871 106.045 11.749 105.889 11.749L104.23 11.7034C104.121 11.7034 104.066 11.7567 104.066 11.8631V12.2738C104.066 14.3422 104.097 15.6426 104.16 16.1749C104.207 16.8289 104.479 17.1863 104.978 17.2471C105.024 17.2624 105.352 17.2928 105.959 17.3384C106.131 17.3384 106.216 17.3992 106.216 17.5209C106.216 17.673 106.084 17.7491 105.819 17.7491C105.336 17.7491 104.69 17.7338 103.879 17.7034C103.069 17.6882 102.656 17.6806 102.641 17.6806C102.563 17.6806 102.189 17.6882 101.519 17.7034C100.849 17.7338 100.358 17.7491 100.047 17.7491C99.7817 17.7491 99.6492 17.6806 99.6492 17.5437C99.6492 17.4068 99.7583 17.3384 99.9764 17.3384C100.428 17.308 100.678 17.2852 100.724 17.27C101.067 17.1939 101.262 16.8289 101.309 16.1749C101.386 15.6426 101.425 14.289 101.425 12.1141ZM104.066 4.44867V10.1749C104.066 10.3422 104.129 10.4487 104.253 10.4943C104.658 10.6464 105.18 10.7224 105.819 10.7224C106.458 10.7224 106.933 10.6084 107.245 10.3802C108.008 9.84791 108.39 8.91255 108.39 7.57414C108.39 6.92015 108.281 6.35741 108.063 5.88593C107.86 5.39924 107.587 5.03422 107.245 4.79088C106.918 4.54753 106.59 4.37262 106.263 4.26616C105.936 4.14449 105.609 4.08365 105.282 4.08365C104.752 4.08365 104.401 4.11407 104.23 4.17491C104.121 4.22053 104.066 4.31179 104.066 4.44867Z" fill="black"/>
<path d="M101.425 12.1141V8.69202C101.425 6.42586 101.41 5.08745 101.379 4.67681C101.348 4.327 101.27 4.07605 101.145 3.92395C101.036 3.75665 100.826 3.64259 100.514 3.58175C100.358 3.55133 100.093 3.52091 99.7193 3.49049C99.4856 3.49049 99.3688 3.42205 99.3688 3.28517C99.3688 3.14829 99.5168 3.07985 99.8128 3.07985C100.218 3.07985 100.779 3.09506 101.496 3.12548C102.212 3.14068 102.61 3.14829 102.687 3.14829C102.89 3.14829 103.381 3.14068 104.16 3.12548C104.939 3.09506 105.445 3.07985 105.679 3.07985C107.393 3.07985 108.67 3.34601 109.512 3.87833C109.901 4.12167 110.252 4.48669 110.563 4.97338C110.875 5.44487 111.031 5.98479 111.031 6.59316C111.031 8.09886 110.119 9.51331 108.296 10.8365C110.556 13.5741 112.02 15.2776 112.69 15.9468C112.83 16.0837 112.963 16.2129 113.087 16.3346C113.228 16.4563 113.352 16.5551 113.461 16.6312C113.57 16.7072 113.687 16.7833 113.812 16.8593C113.937 16.9354 114.03 16.9962 114.092 17.0418C114.17 17.0722 114.264 17.1103 114.373 17.1559C114.482 17.1863 114.552 17.2091 114.583 17.2243C114.63 17.2243 114.708 17.2395 114.817 17.27L114.957 17.2928C115.019 17.2928 115.105 17.3004 115.214 17.3156C115.339 17.3156 115.432 17.3232 115.495 17.3384C115.682 17.3384 115.775 17.3992 115.775 17.5209C115.775 17.673 115.643 17.7491 115.378 17.7491H113.415C112.308 17.7491 111.467 17.6046 110.891 17.3156C110.236 16.9658 109.348 16.0456 108.226 14.5551C106.98 12.8669 106.31 11.9696 106.216 11.8631C106.154 11.7871 106.045 11.749 105.889 11.749L104.23 11.7034C104.121 11.7034 104.066 11.7567 104.066 11.8631V12.2738C104.066 14.3422 104.097 15.6426 104.16 16.1749C104.207 16.8289 104.479 17.1863 104.978 17.2471C105.024 17.2624 105.352 17.2928 105.959 17.3384C106.131 17.3384 106.216 17.3992 106.216 17.5209C106.216 17.673 106.084 17.7491 105.819 17.7491C105.336 17.7491 104.69 17.7338 103.879 17.7034C103.069 17.6882 102.656 17.6806 102.641 17.6806C102.563 17.6806 102.189 17.6882 101.519 17.7034C100.849 17.7338 100.358 17.7491 100.047 17.7491C99.7817 17.7491 99.6492 17.6806 99.6492 17.5437C99.6492 17.4068 99.7583 17.3384 99.9764 17.3384C100.428 17.308 100.678 17.2852 100.724 17.27C101.067 17.1939 101.262 16.8289 101.309 16.1749C101.386 15.6426 101.425 14.289 101.425 12.1141ZM104.066 4.44867V10.1749C104.066 10.3422 104.129 10.4487 104.253 10.4943C104.658 10.6464 105.18 10.7224 105.819 10.7224C106.458 10.7224 106.933 10.6084 107.245 10.3802C108.008 9.84791 108.39 8.91255 108.39 7.57414C108.39 6.92015 108.281 6.35741 108.063 5.88593C107.86 5.39924 107.587 5.03422 107.245 4.79088C106.918 4.54753 106.59 4.37262 106.263 4.26616C105.936 4.14449 105.609 4.08365 105.282 4.08365C104.752 4.08365 104.401 4.11407 104.23 4.17491C104.121 4.22053 104.066 4.31179 104.066 4.44867Z" fill="url(#paint6_linear_78_1428)"/>
<path d="M123.388 12.9354H118.761C118.683 12.9354 118.621 12.9886 118.574 13.0951L117.546 15.5817C117.343 16.0989 117.242 16.4943 117.242 16.7681C117.242 17.1635 117.631 17.3612 118.41 17.3612C118.644 17.3612 118.761 17.4221 118.761 17.5437C118.761 17.6806 118.636 17.7491 118.387 17.7491C118.138 17.7491 117.756 17.7338 117.242 17.7034C116.728 17.6882 116.346 17.6806 116.097 17.6806L115.185 17.7262C114.577 17.7414 114.056 17.7491 113.619 17.7491C113.37 17.7491 113.245 17.6806 113.245 17.5437C113.245 17.4068 113.339 17.3384 113.526 17.3384C114.258 17.2776 114.764 17.1407 115.045 16.9278C115.325 16.7148 115.598 16.2738 115.863 15.6046L120.817 4.17491C121.207 3.1711 121.511 2.6692 121.729 2.6692C121.869 2.6692 122.048 2.90494 122.266 3.37643C122.609 4.31939 124.331 8.25856 127.431 15.1939C127.774 15.9696 128.086 16.5019 128.366 16.7909C128.647 17.0646 128.943 17.2319 129.254 17.2928C129.395 17.3232 129.652 17.3384 130.026 17.3384C130.259 17.3384 130.376 17.4068 130.376 17.5437C130.376 17.6806 130.244 17.7491 129.979 17.7491C127.205 17.7491 125.57 17.7338 125.071 17.7034C124.837 17.673 124.72 17.6122 124.72 17.5209C124.72 17.4601 124.79 17.3992 124.931 17.3384C125.18 17.2624 125.258 17.1255 125.164 16.9278L123.575 13.0722C123.544 12.981 123.482 12.9354 123.388 12.9354ZM119.228 11.7947H122.944C123.038 11.7947 123.069 11.7567 123.038 11.6806L121.215 7.02662C121.137 6.8289 121.059 6.8289 120.981 7.02662L119.135 11.6806C119.104 11.7567 119.135 11.7947 119.228 11.7947Z" fill="black"/>
<path d="M123.388 12.9354H118.761C118.683 12.9354 118.621 12.9886 118.574 13.0951L117.546 15.5817C117.343 16.0989 117.242 16.4943 117.242 16.7681C117.242 17.1635 117.631 17.3612 118.41 17.3612C118.644 17.3612 118.761 17.4221 118.761 17.5437C118.761 17.6806 118.636 17.7491 118.387 17.7491C118.138 17.7491 117.756 17.7338 117.242 17.7034C116.728 17.6882 116.346 17.6806 116.097 17.6806L115.185 17.7262C114.577 17.7414 114.056 17.7491 113.619 17.7491C113.37 17.7491 113.245 17.6806 113.245 17.5437C113.245 17.4068 113.339 17.3384 113.526 17.3384C114.258 17.2776 114.764 17.1407 115.045 16.9278C115.325 16.7148 115.598 16.2738 115.863 15.6046L120.817 4.17491C121.207 3.1711 121.511 2.6692 121.729 2.6692C121.869 2.6692 122.048 2.90494 122.266 3.37643C122.609 4.31939 124.331 8.25856 127.431 15.1939C127.774 15.9696 128.086 16.5019 128.366 16.7909C128.647 17.0646 128.943 17.2319 129.254 17.2928C129.395 17.3232 129.652 17.3384 130.026 17.3384C130.259 17.3384 130.376 17.4068 130.376 17.5437C130.376 17.6806 130.244 17.7491 129.979 17.7491C127.205 17.7491 125.57 17.7338 125.071 17.7034C124.837 17.673 124.72 17.6122 124.72 17.5209C124.72 17.4601 124.79 17.3992 124.931 17.3384C125.18 17.2624 125.258 17.1255 125.164 16.9278L123.575 13.0722C123.544 12.981 123.482 12.9354 123.388 12.9354ZM119.228 11.7947H122.944C123.038 11.7947 123.069 11.7567 123.038 11.6806L121.215 7.02662C121.137 6.8289 121.059 6.8289 120.981 7.02662L119.135 11.6806C119.104 11.7567 119.135 11.7947 119.228 11.7947Z" fill="url(#paint7_linear_78_1428)"/>
<path d="M132.634 14.8973C132.65 13.8023 132.681 11.8631 132.728 9.07985C132.775 6.28137 132.798 4.41065 132.798 3.46768C132.798 2.9962 132.899 2.76046 133.102 2.76046C133.211 2.76046 133.46 2.95057 133.85 3.3308C133.927 3.39164 134.262 3.71863 134.855 4.31179C135.462 4.90494 136.28 5.68821 137.308 6.6616C138.337 7.63498 139.334 8.57034 140.3 9.46768C140.736 9.86312 141.305 10.4106 142.006 11.1103C142.723 11.7947 143.346 12.3954 143.876 12.9125C144.405 13.4144 144.717 13.711 144.81 13.8023L144.624 5.36122C144.608 4.78327 144.546 4.37262 144.437 4.12928C144.343 3.88593 144.156 3.71103 143.876 3.60456C143.782 3.57414 143.432 3.53612 142.824 3.49049C142.59 3.49049 142.473 3.41445 142.473 3.26236C142.473 3.14068 142.645 3.07985 142.988 3.07985C143.377 3.07985 143.876 3.09506 144.483 3.12548C145.091 3.14068 145.457 3.14829 145.582 3.14829C145.613 3.14829 145.87 3.14068 146.353 3.12548C146.836 3.09506 147.272 3.07985 147.662 3.07985C147.958 3.07985 148.106 3.14829 148.106 3.28517C148.106 3.42205 147.989 3.49049 147.755 3.49049C147.397 3.53612 147.202 3.55894 147.171 3.55894C146.875 3.63498 146.665 3.79468 146.54 4.03802C146.431 4.26616 146.369 4.65399 146.353 5.20152C146.353 5.29278 146.283 9.31559 146.143 17.27C146.143 17.7414 146.041 17.9772 145.839 17.9772C145.652 17.9772 145.317 17.7643 144.834 17.3384C143.93 16.5323 142.014 14.7529 139.085 12C137.978 10.9962 136.342 9.39163 134.177 7.18631L134.387 15.1027C134.434 16.365 134.668 17.0646 135.088 17.2015C135.26 17.2624 135.626 17.308 136.187 17.3384C136.42 17.3384 136.537 17.3992 136.537 17.5209C136.537 17.673 136.381 17.7491 136.07 17.7491C135.602 17.7491 135.088 17.7338 134.527 17.7034C133.966 17.6882 133.624 17.6806 133.499 17.6806C133.468 17.6806 133.172 17.6882 132.611 17.7034C132.05 17.7338 131.567 17.7491 131.162 17.7491C130.866 17.7491 130.718 17.6806 130.718 17.5437C130.718 17.4068 130.827 17.3384 131.045 17.3384C131.59 17.2928 131.886 17.2624 131.933 17.2471C132.214 17.1711 132.393 16.981 132.471 16.6768C132.564 16.3574 132.619 15.7643 132.634 14.8973Z" fill="black"/>
<path d="M132.634 14.8973C132.65 13.8023 132.681 11.8631 132.728 9.07985C132.775 6.28137 132.798 4.41065 132.798 3.46768C132.798 2.9962 132.899 2.76046 133.102 2.76046C133.211 2.76046 133.46 2.95057 133.85 3.3308C133.927 3.39164 134.262 3.71863 134.855 4.31179C135.462 4.90494 136.28 5.68821 137.308 6.6616C138.337 7.63498 139.334 8.57034 140.3 9.46768C140.736 9.86312 141.305 10.4106 142.006 11.1103C142.723 11.7947 143.346 12.3954 143.876 12.9125C144.405 13.4144 144.717 13.711 144.81 13.8023L144.624 5.36122C144.608 4.78327 144.546 4.37262 144.437 4.12928C144.343 3.88593 144.156 3.71103 143.876 3.60456C143.782 3.57414 143.432 3.53612 142.824 3.49049C142.59 3.49049 142.473 3.41445 142.473 3.26236C142.473 3.14068 142.645 3.07985 142.988 3.07985C143.377 3.07985 143.876 3.09506 144.483 3.12548C145.091 3.14068 145.457 3.14829 145.582 3.14829C145.613 3.14829 145.87 3.14068 146.353 3.12548C146.836 3.09506 147.272 3.07985 147.662 3.07985C147.958 3.07985 148.106 3.14829 148.106 3.28517C148.106 3.42205 147.989 3.49049 147.755 3.49049C147.397 3.53612 147.202 3.55894 147.171 3.55894C146.875 3.63498 146.665 3.79468 146.54 4.03802C146.431 4.26616 146.369 4.65399 146.353 5.20152C146.353 5.29278 146.283 9.31559 146.143 17.27C146.143 17.7414 146.041 17.9772 145.839 17.9772C145.652 17.9772 145.317 17.7643 144.834 17.3384C143.93 16.5323 142.014 14.7529 139.085 12C137.978 10.9962 136.342 9.39163 134.177 7.18631L134.387 15.1027C134.434 16.365 134.668 17.0646 135.088 17.2015C135.26 17.2624 135.626 17.308 136.187 17.3384C136.42 17.3384 136.537 17.3992 136.537 17.5209C136.537 17.673 136.381 17.7491 136.07 17.7491C135.602 17.7491 135.088 17.7338 134.527 17.7034C133.966 17.6882 133.624 17.6806 133.499 17.6806C133.468 17.6806 133.172 17.6882 132.611 17.7034C132.05 17.7338 131.567 17.7491 131.162 17.7491C130.866 17.7491 130.718 17.6806 130.718 17.5437C130.718 17.4068 130.827 17.3384 131.045 17.3384C131.59 17.2928 131.886 17.2624 131.933 17.2471C132.214 17.1711 132.393 16.981 132.471 16.6768C132.564 16.3574 132.619 15.7643 132.634 14.8973Z" fill="url(#paint8_linear_78_1428)"/>
<path d="M154.671 18C153.425 18 152.397 17.8327 151.587 17.4981C151.322 17.3916 151.189 17.1711 151.189 16.8365C151.189 15.9848 151.22 15.1027 151.283 14.1901C151.314 13.8555 151.4 13.6882 151.54 13.6882C151.664 13.6882 151.742 13.7947 151.773 14.0076C151.82 14.4791 151.867 14.7833 151.914 14.9202C152.116 15.6198 152.49 16.1445 153.036 16.4943C153.596 16.8441 154.235 17.019 154.952 17.019C155.824 17.019 156.494 16.8061 156.962 16.3802C157.429 15.9544 157.663 15.4601 157.663 14.8973C157.663 14.3802 157.523 13.8935 157.242 13.4373C156.977 12.9658 156.448 12.4487 155.653 11.8859L154.671 11.1559C153.55 10.3194 152.755 9.55133 152.288 8.85171C151.836 8.13688 151.61 7.36882 151.61 6.54753C151.61 5.46768 152.046 4.57795 152.919 3.87833C153.807 3.1635 154.975 2.80608 156.424 2.80608C156.938 2.80608 157.632 2.87453 158.504 3.01141C158.598 3.02662 158.738 3.04943 158.925 3.07985C159.127 3.11027 159.268 3.13308 159.346 3.14829C159.501 3.1635 159.579 3.24715 159.579 3.39924L159.533 4.12928C159.501 4.63118 159.486 5.19392 159.486 5.81749C159.486 6.21293 159.408 6.41065 159.252 6.41065C159.127 6.41065 159.05 6.28137 159.018 6.02281C158.972 5.58175 158.816 5.1711 158.551 4.79088C158.099 4.10646 157.32 3.76426 156.214 3.76426C155.466 3.76426 154.874 3.94677 154.438 4.31179C154.001 4.6616 153.783 5.12548 153.783 5.70342C153.783 6.1597 153.931 6.59316 154.227 7.0038C154.539 7.41445 155.092 7.88593 155.887 8.41825L156.541 8.85171C157.819 9.70342 158.715 10.5019 159.229 11.2471C159.743 11.9924 160 12.8365 160 13.7795C160 15.2548 159.33 16.403 157.99 17.2243C157.102 17.7414 155.996 18 154.671 18Z" fill="black"/>
<path d="M154.671 18C153.425 18 152.397 17.8327 151.587 17.4981C151.322 17.3916 151.189 17.1711 151.189 16.8365C151.189 15.9848 151.22 15.1027 151.283 14.1901C151.314 13.8555 151.4 13.6882 151.54 13.6882C151.664 13.6882 151.742 13.7947 151.773 14.0076C151.82 14.4791 151.867 14.7833 151.914 14.9202C152.116 15.6198 152.49 16.1445 153.036 16.4943C153.596 16.8441 154.235 17.019 154.952 17.019C155.824 17.019 156.494 16.8061 156.962 16.3802C157.429 15.9544 157.663 15.4601 157.663 14.8973C157.663 14.3802 157.523 13.8935 157.242 13.4373C156.977 12.9658 156.448 12.4487 155.653 11.8859L154.671 11.1559C153.55 10.3194 152.755 9.55133 152.288 8.85171C151.836 8.13688 151.61 7.36882 151.61 6.54753C151.61 5.46768 152.046 4.57795 152.919 3.87833C153.807 3.1635 154.975 2.80608 156.424 2.80608C156.938 2.80608 157.632 2.87453 158.504 3.01141C158.598 3.02662 158.738 3.04943 158.925 3.07985C159.127 3.11027 159.268 3.13308 159.346 3.14829C159.501 3.1635 159.579 3.24715 159.579 3.39924L159.533 4.12928C159.501 4.63118 159.486 5.19392 159.486 5.81749C159.486 6.21293 159.408 6.41065 159.252 6.41065C159.127 6.41065 159.05 6.28137 159.018 6.02281C158.972 5.58175 158.816 5.1711 158.551 4.79088C158.099 4.10646 157.32 3.76426 156.214 3.76426C155.466 3.76426 154.874 3.94677 154.438 4.31179C154.001 4.6616 153.783 5.12548 153.783 5.70342C153.783 6.1597 153.931 6.59316 154.227 7.0038C154.539 7.41445 155.092 7.88593 155.887 8.41825L156.541 8.85171C157.819 9.70342 158.715 10.5019 159.229 11.2471C159.743 11.9924 160 12.8365 160 13.7795C160 15.2548 159.33 16.403 157.99 17.2243C157.102 17.7414 155.996 18 154.671 18Z" fill="url(#paint9_linear_78_1428)"/>
<defs>
<linearGradient id="paint0_linear_78_1428" x1="80.5769" y1="0.016065" x2="80.5051" y2="17.5885" gradientUnits="userSpaceOnUse">
<stop stop-color="#5B5B5B"/>
<stop offset="1" stop-color="#1C1C1C"/>
</linearGradient>
<linearGradient id="paint1_linear_78_1428" x1="80.5769" y1="0.016065" x2="80.5051" y2="17.5885" gradientUnits="userSpaceOnUse">
<stop stop-color="#5B5B5B"/>
<stop offset="1" stop-color="#1C1C1C"/>
</linearGradient>
<linearGradient id="paint2_linear_78_1428" x1="80.5769" y1="0.016065" x2="80.5051" y2="17.5885" gradientUnits="userSpaceOnUse">
<stop stop-color="#5B5B5B"/>
<stop offset="1" stop-color="#1C1C1C"/>
</linearGradient>
<linearGradient id="paint3_linear_78_1428" x1="80.5769" y1="0.016065" x2="80.5051" y2="17.5885" gradientUnits="userSpaceOnUse">
<stop stop-color="#5B5B5B"/>
<stop offset="1" stop-color="#1C1C1C"/>
</linearGradient>
<linearGradient id="paint4_linear_78_1428" x1="80.5769" y1="0.016065" x2="80.5051" y2="17.5885" gradientUnits="userSpaceOnUse">
<stop stop-color="#5B5B5B"/>
<stop offset="1" stop-color="#1C1C1C"/>
</linearGradient>
<linearGradient id="paint5_linear_78_1428" x1="80.5769" y1="0.016065" x2="80.5051" y2="17.5885" gradientUnits="userSpaceOnUse">
<stop stop-color="#5B5B5B"/>
<stop offset="1" stop-color="#1C1C1C"/>
</linearGradient>
<linearGradient id="paint6_linear_78_1428" x1="80.5769" y1="0.016065" x2="80.5051" y2="17.5885" gradientUnits="userSpaceOnUse">
<stop stop-color="#5B5B5B"/>
<stop offset="1" stop-color="#1C1C1C"/>
</linearGradient>
<linearGradient id="paint7_linear_78_1428" x1="80.5769" y1="0.016065" x2="80.5051" y2="17.5885" gradientUnits="userSpaceOnUse">
<stop stop-color="#5B5B5B"/>
<stop offset="1" stop-color="#1C1C1C"/>
</linearGradient>
<linearGradient id="paint8_linear_78_1428" x1="80.5769" y1="0.016065" x2="80.5051" y2="17.5885" gradientUnits="userSpaceOnUse">
<stop stop-color="#5B5B5B"/>
<stop offset="1" stop-color="#1C1C1C"/>
</linearGradient>
<linearGradient id="paint9_linear_78_1428" x1="80.5769" y1="0.016065" x2="80.5051" y2="17.5885" gradientUnits="userSpaceOnUse">
<stop stop-color="#5B5B5B"/>
<stop offset="1" stop-color="#1C1C1C"/>
</linearGradient>
</defs>
</svg>
