<svg xmlns="http://www.w3.org/2000/svg" width="260" height="30" viewBox="0 0 260 30" fill="none">
  <path d="M30.9516 1.17871L34.4076 24.6768C34.5848 25.9442 34.8 26.8695 35.0532 27.4525C35.3064 28.0101 35.7115 28.365 36.2685 28.5171C37.0787 28.7706 37.8635 28.8973 38.6231 28.8973C39.0282 28.8973 39.2307 28.9861 39.2307 29.1635C39.2307 29.4423 38.9016 29.5818 38.2433 29.5818C35.1292 29.5818 32.5594 29.5057 30.5339 29.3536C29.7997 29.2776 29.4325 29.1382 29.4325 28.9354C29.4325 28.7833 29.5718 28.6439 29.8503 28.5171C30.1288 28.4157 30.1921 27.8707 30.0402 26.8821L27.7236 9.92396L19.3305 27.4144C18.8748 28.3523 18.571 28.948 18.4191 29.2015C18.2672 29.4297 18.1026 29.5437 17.9254 29.5437C17.7228 29.5437 17.2798 28.91 16.5962 27.6426C14.0896 22.8264 12.6338 19.9493 12.2287 19.0114C12.1275 18.7833 11.849 18.1749 11.3932 17.1863C10.9375 16.1977 10.3552 14.9683 9.64628 13.4981C8.96268 12.0279 8.46898 10.9632 8.16516 10.3042L6.15235 25.7034C6.0764 26.3878 6.03842 26.9835 6.03842 27.4905C6.03842 28.1242 6.41819 28.5298 7.17774 28.7072C7.73475 28.834 8.26643 28.8973 8.7728 28.8973C9.15257 28.8973 9.34246 28.9861 9.34246 29.1635C9.34246 29.4423 9.03864 29.5818 8.431 29.5818C7.82336 29.5818 7.03849 29.5564 6.0764 29.5057C5.13962 29.4804 4.59527 29.4677 4.44336 29.4677C4.24082 29.4677 3.67116 29.4804 2.73438 29.5057C1.82292 29.5564 1.13932 29.5818 0.683594 29.5818C0.227865 29.5818 0 29.4423 0 29.1635C0 28.9861 0.202547 28.8973 0.60764 28.8973C0.987414 28.8973 1.36719 28.8593 1.74696 28.7833C2.50651 28.6058 3.02554 27.6046 3.30404 25.7795L7.06381 0.988594C7.1904 0.329531 7.40561 0 7.70943 0C8.01325 0 8.35504 0.392903 8.73482 1.17871L19.1027 22.6236L29.4325 0.912547C29.7364 0.304182 30.0149 0 30.268 0C30.6225 0 30.8504 0.392903 30.9516 1.17871Z" fill="#EBB200"/>
  <path d="M54.5345 21.5589H47.0149C46.8883 21.5589 46.7871 21.6477 46.7111 21.8251L45.0401 25.9696C44.711 26.8314 44.5464 27.4905 44.5464 27.9468C44.5464 28.6058 45.1793 28.9354 46.4453 28.9354C46.825 28.9354 47.0149 29.0368 47.0149 29.2395C47.0149 29.4677 46.8124 29.5818 46.4073 29.5818C46.0022 29.5818 45.3819 29.5564 44.5464 29.5057C43.7109 29.4804 43.0906 29.4677 42.6855 29.4677L41.2044 29.5437C40.217 29.5691 39.3688 29.5818 38.6599 29.5818C38.2548 29.5818 38.0522 29.4677 38.0522 29.2395C38.0522 29.0114 38.2041 28.8973 38.508 28.8973C39.6979 28.7959 40.5208 28.5678 40.9765 28.2129C41.4322 27.858 41.8753 27.1229 42.3057 26.0076L50.3569 6.95818C50.9899 5.28517 51.4836 4.44867 51.8381 4.44867C52.0659 4.44867 52.3571 4.84157 52.7115 5.62738C53.2685 7.19899 56.0662 13.7643 61.1046 25.3232C61.6616 26.616 62.1679 27.5032 62.6237 27.9848C63.0794 28.4411 63.5604 28.7199 64.0668 28.8213C64.2947 28.872 64.7124 28.8973 65.3201 28.8973C65.6998 28.8973 65.8897 29.0114 65.8897 29.2395C65.8897 29.4677 65.6745 29.5818 65.2441 29.5818C60.7374 29.5818 58.079 29.5564 57.2688 29.5057C56.8891 29.455 56.6992 29.3536 56.6992 29.2015C56.6992 29.1001 56.8131 28.9987 57.041 28.8973C57.4461 28.7706 57.5727 28.5425 57.4207 28.2129L54.8383 21.7871C54.7876 21.635 54.6864 21.5589 54.5345 21.5589ZM47.7745 19.6578H53.8129C53.9648 19.6578 54.0154 19.5944 53.9648 19.4677L51.0026 11.711C50.876 11.3815 50.7494 11.3815 50.6228 11.711L47.6226 19.4677C47.5719 19.5944 47.6226 19.6578 47.7745 19.6578Z" fill="#EBB200"/>
  <path d="M75.9775 28.0608L67.5085 8.44106C67.1287 7.57921 66.7616 6.9962 66.4072 6.69202C66.078 6.36248 65.597 6.12167 64.964 5.96958C64.5589 5.86819 64.1792 5.81749 63.8247 5.81749C63.5209 5.81749 63.369 5.70342 63.369 5.47528C63.369 5.24715 63.6348 5.13308 64.1665 5.13308C64.7995 5.13308 65.6856 5.15843 66.8249 5.20913C67.9642 5.23447 68.7111 5.24715 69.0656 5.24715C69.2935 5.24715 69.9137 5.23447 70.9265 5.20913C71.9645 5.15843 72.8254 5.13308 73.5089 5.13308C73.99 5.13308 74.2305 5.24715 74.2305 5.47528C74.2305 5.70342 74.0533 5.81749 73.6988 5.81749C73.0659 5.86819 72.6355 5.95691 72.4076 6.08365C72.1544 6.21039 72.0278 6.42586 72.0278 6.73004C72.0278 7.18631 72.2937 8.02281 72.8254 9.23954C73.509 11.0139 74.547 13.6755 75.9395 17.2243C77.3573 20.7478 78.2055 22.8517 78.484 23.5361C82.4843 13.9544 84.6617 8.70722 85.0161 7.79468C85.2187 7.28771 85.32 6.90748 85.32 6.65399C85.32 6.29911 85.1554 6.08365 84.8262 6.0076C84.5477 5.93156 84.092 5.86819 83.4591 5.81749C83.0793 5.81749 82.8894 5.70342 82.8894 5.47528C82.8894 5.24715 83.1552 5.13308 83.6869 5.13308C84.3958 5.13308 85.1934 5.15843 86.0795 5.20913C86.9656 5.23447 87.4214 5.24715 87.4467 5.24715C87.5986 5.24715 88.0796 5.23447 88.8898 5.20913C89.7253 5.15843 90.3203 5.13308 90.6748 5.13308C91.1811 5.13308 91.4343 5.24715 91.4343 5.47528C91.4343 5.70342 91.2191 5.81749 90.7887 5.81749C90.0545 5.89354 89.5481 6.02028 89.2696 6.19772C88.7126 6.52725 88.0797 7.50317 87.3707 9.12548C86.915 10.1394 86.2567 11.5336 85.3959 13.308C84.5604 15.0824 83.8515 16.616 83.2692 17.9087C80.8386 23.2573 79.3575 26.5019 78.8258 27.6426C78.3701 28.6565 78.0536 29.3029 77.8764 29.5818C77.6991 29.8606 77.4966 30 77.2687 30C77.0409 30 76.851 29.8733 76.6991 29.6198C76.5725 29.3916 76.332 28.872 75.9775 28.0608Z" fill="#EBB200"/>
  <path d="M96.04 20.1901V14.4867C96.04 10.7098 96.0147 8.47909 95.964 7.79468C95.9134 7.21166 95.7868 6.79341 95.5843 6.53992C95.407 6.26109 95.0652 6.07098 94.5589 5.96958C94.3057 5.91889 93.8753 5.86819 93.2676 5.81749C92.8879 5.81749 92.698 5.70342 92.698 5.47528C92.698 5.24715 92.9385 5.13308 93.4195 5.13308C94.0778 5.13308 94.9893 5.15843 96.1539 5.20913C97.3186 5.23447 97.9642 5.24715 98.0908 5.24715C98.4199 5.24715 99.2174 5.23447 100.483 5.20913C101.749 5.15843 102.572 5.13308 102.952 5.13308C105.737 5.13308 107.813 5.57668 109.18 6.46388C109.813 6.86945 110.383 7.47782 110.889 8.28897C111.396 9.07478 111.649 9.97465 111.649 10.9886C111.649 13.4981 110.168 15.8555 107.205 18.0608C110.877 22.6236 113.256 25.4626 114.345 26.5779C114.573 26.8061 114.788 27.0215 114.991 27.2243C115.219 27.4271 115.421 27.5919 115.598 27.7186C115.776 27.8454 115.965 27.9721 116.168 28.0989C116.371 28.2256 116.523 28.327 116.624 28.403C116.75 28.4537 116.902 28.5171 117.08 28.5932C117.257 28.6439 117.371 28.6819 117.421 28.7072C117.497 28.7072 117.624 28.7326 117.801 28.7833L118.029 28.8213C118.13 28.8213 118.269 28.834 118.447 28.8593C118.649 28.8593 118.801 28.872 118.902 28.8973C119.206 28.8973 119.358 28.9987 119.358 29.2015C119.358 29.455 119.143 29.5818 118.713 29.5818H115.522C113.725 29.5818 112.358 29.3409 111.421 28.8593C110.357 28.2763 108.914 26.7427 107.091 24.2586C105.066 21.4449 103.977 19.9493 103.825 19.7719C103.724 19.6451 103.547 19.5817 103.294 19.5817L100.597 19.5057C100.42 19.5057 100.331 19.5944 100.331 19.7719V20.4563C100.331 23.9037 100.382 26.071 100.483 26.9582C100.559 28.0482 101.002 28.6439 101.813 28.7452C101.889 28.7706 102.42 28.8213 103.408 28.8973C103.686 28.8973 103.825 28.9987 103.825 29.2015C103.825 29.455 103.61 29.5818 103.18 29.5818C102.395 29.5818 101.344 29.5564 100.028 29.5057C98.7111 29.4804 98.0401 29.4677 98.0148 29.4677C97.8882 29.4677 97.2806 29.4804 96.1919 29.5057C95.1032 29.5564 94.3057 29.5818 93.7993 29.5818C93.3689 29.5818 93.1537 29.4677 93.1537 29.2395C93.1537 29.0114 93.3309 28.8973 93.6854 28.8973C94.4196 28.8466 94.8247 28.8086 94.9007 28.7833C95.4577 28.6565 95.7741 28.0482 95.8501 26.9582C95.9767 26.071 96.04 23.815 96.04 20.1901ZM100.331 7.41445V16.9582C100.331 17.237 100.433 17.4144 100.635 17.4905C101.294 17.744 102.142 17.8707 103.18 17.8707C104.218 17.8707 104.99 17.6806 105.496 17.3004C106.737 16.4132 107.357 14.8542 107.357 12.6236C107.357 11.5336 107.18 10.5957 106.826 9.80989C106.496 8.99873 106.053 8.39037 105.496 7.98479C104.965 7.57921 104.433 7.28771 103.901 7.11027C103.37 6.90748 102.838 6.80608 102.306 6.80608C101.445 6.80608 100.876 6.85678 100.597 6.95818C100.42 7.03422 100.331 7.18631 100.331 7.41445Z" fill="#EBB200"/>
  <path d="M119.767 16.1977H128.54C129.35 16.1977 129.755 16.3245 129.755 16.5779C129.755 16.73 129.666 16.8441 129.489 16.9202C129.337 16.9708 128.957 17.0722 128.35 17.2243C124.501 18.1115 121.805 18.8086 120.26 19.3156C119.374 19.6451 118.817 19.8099 118.589 19.8099C118.362 19.8099 118.298 19.6071 118.4 19.2015L118.893 16.692C118.944 16.4639 119.02 16.3245 119.121 16.2738C119.222 16.2231 119.438 16.1977 119.767 16.1977Z" fill="#EBB200"/>
  <path d="M147.684 2.96578V18.5551C147.684 22.8897 147.747 25.602 147.874 26.692C148 27.9594 148.494 28.6439 149.355 28.7452C150.064 28.8466 150.709 28.8973 151.292 28.8973C151.697 28.8973 151.899 28.9987 151.899 29.2015C151.899 29.455 151.659 29.5818 151.178 29.5818C150.216 29.5818 149.038 29.5564 147.646 29.5057C146.253 29.4804 145.443 29.4677 145.215 29.4677C144.987 29.4677 144.266 29.4804 143.05 29.5057C141.86 29.5564 140.987 29.5818 140.43 29.5818C139.924 29.5818 139.67 29.455 139.67 29.2015C139.67 28.9987 139.873 28.8973 140.278 28.8973C140.734 28.8973 141.19 28.8466 141.645 28.7452C142.253 28.6185 142.62 27.9214 142.747 26.654C142.873 25.5894 142.937 22.8897 142.937 18.5551V2.96578C142.911 2.96578 142.139 2.99113 140.62 3.04182C139.126 3.06717 138.012 3.09252 137.278 3.11787C136.139 3.16857 135.303 3.26996 134.771 3.42205C134.265 3.5488 133.873 3.81496 133.594 4.22053C133.265 4.7275 133.05 5.1711 132.948 5.55133C132.872 5.85551 132.733 6.0076 132.531 6.0076C132.303 6.0076 132.189 5.80482 132.189 5.39924C132.189 4.61343 132.455 3.15589 132.986 1.02662C133.088 0.544994 133.24 0.304183 133.442 0.304183C133.493 0.304183 133.683 0.380229 134.012 0.532319C134.366 0.659062 134.721 0.735107 135.075 0.760456C136.29 0.887198 137.556 0.950569 138.873 0.950569H153.912C154.697 0.950569 155.57 0.887198 156.532 0.760456C157.165 0.633713 157.507 0.570342 157.558 0.570342C157.76 0.570342 157.862 0.836502 157.862 1.36882C157.862 1.62231 157.836 2.33207 157.786 3.4981C157.76 4.66413 157.748 5.42459 157.748 5.77947C157.697 6.18504 157.583 6.38783 157.406 6.38783C157.153 6.38783 157.014 6.13435 156.988 5.62738C156.988 5.60203 156.976 5.53866 156.95 5.43726C156.95 5.33587 156.95 5.25982 156.95 5.20913C156.849 3.86565 155.355 3.15589 152.469 3.07985C151.456 3.02915 149.861 2.99113 147.684 2.96578Z" fill="#EBB200"/>
  <path d="M164.816 20.1901V14.4867C164.816 10.7098 164.791 8.47909 164.74 7.79468C164.69 7.21166 164.563 6.79341 164.361 6.53992C164.183 6.26109 163.842 6.07098 163.335 5.96958C163.082 5.91889 162.652 5.86819 162.044 5.81749C161.664 5.81749 161.474 5.70342 161.474 5.47528C161.474 5.24715 161.715 5.13308 162.196 5.13308C162.854 5.13308 163.766 5.15843 164.93 5.20913C166.095 5.23447 166.74 5.24715 166.867 5.24715C167.196 5.24715 167.994 5.23447 169.26 5.20913C170.526 5.15843 171.348 5.13308 171.728 5.13308C174.513 5.13308 176.589 5.57668 177.956 6.46388C178.589 6.86945 179.159 7.47782 179.665 8.28897C180.172 9.07478 180.425 9.97465 180.425 10.9886C180.425 13.4981 178.944 15.8555 175.982 18.0608C179.653 22.6236 182.033 25.4626 183.121 26.5779C183.349 26.8061 183.565 27.0215 183.767 27.2243C183.995 27.4271 184.197 27.5919 184.375 27.7186C184.552 27.8454 184.742 27.9721 184.944 28.0989C185.147 28.2256 185.299 28.327 185.4 28.403C185.527 28.4537 185.679 28.5171 185.856 28.5932C186.033 28.6439 186.147 28.6819 186.198 28.7072C186.274 28.7072 186.4 28.7326 186.577 28.7833L186.805 28.8213C186.907 28.8213 187.046 28.834 187.223 28.8593C187.426 28.8593 187.577 28.872 187.679 28.8973C187.983 28.8973 188.134 28.9987 188.134 29.2015C188.134 29.455 187.919 29.5818 187.489 29.5818H184.299C182.501 29.5818 181.134 29.3409 180.197 28.8593C179.134 28.2763 177.691 26.7427 175.868 24.2586C173.842 21.4449 172.754 19.9493 172.602 19.7719C172.5 19.6451 172.323 19.5817 172.07 19.5817L169.374 19.5057C169.196 19.5057 169.108 19.5944 169.108 19.7719V20.4563C169.108 23.9037 169.158 26.071 169.26 26.9582C169.336 28.0482 169.779 28.6439 170.589 28.7452C170.665 28.7706 171.197 28.8213 172.184 28.8973C172.462 28.8973 172.602 28.9987 172.602 29.2015C172.602 29.455 172.386 29.5818 171.956 29.5818C171.171 29.5818 170.12 29.5564 168.804 29.5057C167.487 29.4804 166.816 29.4677 166.791 29.4677C166.665 29.4677 166.057 29.4804 164.968 29.5057C163.88 29.5564 163.082 29.5818 162.576 29.5818C162.145 29.5818 161.93 29.4677 161.93 29.2395C161.93 29.0114 162.107 28.8973 162.462 28.8973C163.196 28.8466 163.601 28.8086 163.677 28.7833C164.234 28.6565 164.55 28.0482 164.626 26.9582C164.753 26.071 164.816 23.815 164.816 20.1901ZM169.108 7.41445V16.9582C169.108 17.237 169.209 17.4144 169.412 17.4905C170.07 17.744 170.918 17.8707 171.956 17.8707C172.994 17.8707 173.766 17.6806 174.273 17.3004C175.513 16.4132 176.134 14.8542 176.134 12.6236C176.134 11.5336 175.956 10.5957 175.602 9.80989C175.273 8.99873 174.83 8.39037 174.273 7.98479C173.741 7.57921 173.209 7.28771 172.678 7.11027C172.146 6.90748 171.614 6.80608 171.083 6.80608C170.222 6.80608 169.652 6.85678 169.374 6.95818C169.196 7.03422 169.108 7.18631 169.108 7.41445Z" fill="#EBB200"/>
  <path d="M200.506 21.5589H192.986C192.86 21.5589 192.759 21.6477 192.683 21.8251L191.012 25.9696C190.682 26.8314 190.518 27.4905 190.518 27.9468C190.518 28.6058 191.151 28.9354 192.417 28.9354C192.796 28.9354 192.986 29.0368 192.986 29.2395C192.986 29.4677 192.784 29.5818 192.379 29.5818C191.974 29.5818 191.353 29.5564 190.518 29.5057C189.682 29.4804 189.062 29.4677 188.657 29.4677L187.176 29.5437C186.188 29.5691 185.34 29.5818 184.631 29.5818C184.226 29.5818 184.024 29.4677 184.024 29.2395C184.024 29.0114 184.176 28.8973 184.479 28.8973C185.669 28.7959 186.492 28.5678 186.948 28.2129C187.404 27.858 187.847 27.1229 188.277 26.0076L196.328 6.95818C196.961 5.28517 197.455 4.44867 197.81 4.44867C198.037 4.44867 198.329 4.84157 198.683 5.62738C199.24 7.19899 202.038 13.7643 207.076 25.3232C207.633 26.616 208.139 27.5032 208.595 27.9848C209.051 28.4411 209.532 28.7199 210.038 28.8213C210.266 28.872 210.684 28.8973 211.292 28.8973C211.671 28.8973 211.861 29.0114 211.861 29.2395C211.861 29.4677 211.646 29.5818 211.216 29.5818C206.709 29.5818 204.05 29.5564 203.24 29.5057C202.861 29.455 202.671 29.3536 202.671 29.2015C202.671 29.1001 202.785 28.9987 203.012 28.8973C203.418 28.7706 203.544 28.5425 203.392 28.2129L200.81 21.7871C200.759 21.635 200.658 21.5589 200.506 21.5589ZM193.746 19.6578H199.784C199.936 19.6578 199.987 19.5944 199.936 19.4677L196.974 11.711C196.847 11.3815 196.721 11.3815 196.594 11.711L193.594 19.4677C193.543 19.5944 193.594 19.6578 193.746 19.6578Z" fill="#EBB200"/>
  <path d="M215.531 24.8289C215.556 23.0038 215.607 19.7719 215.683 15.1331C215.759 10.4689 215.797 7.35108 215.797 5.77947C215.797 4.99366 215.961 4.60076 216.29 4.60076C216.468 4.60076 216.873 4.91762 217.506 5.55133C217.632 5.65273 218.177 6.19772 219.139 7.18631C220.126 8.1749 221.455 9.48035 223.126 11.1027C224.797 12.725 226.418 14.2839 227.987 15.7795C228.696 16.4385 229.62 17.3511 230.76 18.5171C231.924 19.6578 232.937 20.6591 233.798 21.5209C234.659 22.3574 235.165 22.8517 235.317 23.0038L235.013 8.93536C234.988 7.97212 234.887 7.28771 234.709 6.88213C234.557 6.47655 234.254 6.18504 233.798 6.0076C233.646 5.95691 233.076 5.89354 232.089 5.81749C231.709 5.81749 231.519 5.69075 231.519 5.43726C231.519 5.23447 231.798 5.13308 232.355 5.13308C232.988 5.13308 233.798 5.15843 234.785 5.20913C235.773 5.23447 236.368 5.24715 236.57 5.24715C236.621 5.24715 237.039 5.23447 237.824 5.20913C238.608 5.15843 239.317 5.13308 239.95 5.13308C240.431 5.13308 240.672 5.24715 240.672 5.47528C240.672 5.70342 240.482 5.81749 240.102 5.81749C239.52 5.89354 239.203 5.93156 239.153 5.93156C238.672 6.0583 238.33 6.32446 238.127 6.73004C237.95 7.11027 237.849 7.75665 237.824 8.6692C237.824 8.82129 237.71 15.526 237.482 28.7833C237.482 29.5691 237.317 29.962 236.988 29.962C236.684 29.962 236.14 29.6071 235.355 28.8973C233.887 27.5539 230.772 24.5881 226.013 20C224.215 18.327 221.557 15.6527 218.037 11.9772L218.379 25.1711C218.455 27.275 218.835 28.4411 219.518 28.6692C219.797 28.7706 220.392 28.8466 221.303 28.8973C221.683 28.8973 221.873 28.9987 221.873 29.2015C221.873 29.455 221.62 29.5818 221.113 29.5818C220.354 29.5818 219.518 29.5564 218.607 29.5057C217.695 29.4804 217.138 29.4677 216.936 29.4677C216.885 29.4677 216.404 29.4804 215.493 29.5057C214.581 29.5564 213.796 29.5818 213.138 29.5818C212.657 29.5818 212.417 29.4677 212.417 29.2395C212.417 29.0114 212.594 28.8973 212.948 28.8973C213.834 28.8213 214.315 28.7706 214.391 28.7452C214.847 28.6185 215.138 28.3016 215.265 27.7947C215.417 27.2624 215.505 26.2738 215.531 24.8289Z" fill="#EBB200"/>
  <path d="M251.341 30C249.316 30 247.645 29.7212 246.328 29.1635C245.898 28.9861 245.682 28.6185 245.682 28.0608C245.682 26.6413 245.733 25.1711 245.834 23.6502C245.885 23.0925 246.024 22.8137 246.252 22.8137C246.455 22.8137 246.581 22.9911 246.632 23.346C246.708 24.1318 246.784 24.6388 246.86 24.8669C247.189 26.033 247.797 26.9075 248.683 27.4905C249.594 28.0735 250.632 28.365 251.797 28.365C253.215 28.365 254.303 28.0101 255.063 27.3004C255.822 26.5906 256.202 25.7668 256.202 24.8289C256.202 23.967 255.974 23.1559 255.519 22.3954C255.088 21.6096 254.227 20.7478 252.936 19.8099L251.341 18.5932C249.518 17.199 248.227 15.9189 247.467 14.7529C246.733 13.5615 246.366 12.2814 246.366 10.9125C246.366 9.1128 247.075 7.62991 248.493 6.46388C249.936 5.2725 251.835 4.67681 254.189 4.67681C255.025 4.67681 256.152 4.79088 257.569 5.01901C257.721 5.04436 257.949 5.08238 258.253 5.13308C258.582 5.18378 258.81 5.2218 258.937 5.24715C259.19 5.2725 259.316 5.41191 259.316 5.6654L259.24 6.88213C259.19 7.71863 259.165 8.65653 259.165 9.69582C259.165 10.3549 259.038 10.6844 258.785 10.6844C258.582 10.6844 258.456 10.4689 258.405 10.038C258.329 9.30292 258.076 8.61851 257.645 7.98479C256.911 6.84411 255.645 6.27377 253.848 6.27377C252.632 6.27377 251.67 6.57795 250.961 7.18631C250.252 7.76933 249.898 8.54246 249.898 9.5057C249.898 10.2662 250.139 10.9886 250.62 11.673C251.126 12.3574 252.025 13.1432 253.316 14.0304L254.379 14.7529C256.455 16.1724 257.911 17.5032 258.747 18.7452C259.582 19.9873 260 21.3942 260 22.9658C260 25.4246 258.911 27.3384 256.734 28.7072C255.291 29.5691 253.493 30 251.341 30Z" fill="#EBB200"/>
</svg>